<svg width="280" height="45" viewBox="0 0 280 45" fill="none" xmlns="http://www.w3.org/2000/svg">
<path d="M250.473 12.9556C250.882 11.8975 250.784 10.2955 250.758 9.7419C250.732 9.18825 250.358 9.17188 249.654 9.17188C248.885 9.26438 248.127 9.43115 247.39 9.66983C246.683 9.84673 245.998 10.0597 245.605 10.1383C244.714 10.3283 243.741 11.0097 244.059 11.5863C244.376 12.1629 245.493 11.4323 246.709 11.1145C246.948 11.0359 247.181 10.9835 247.39 10.9311C248.291 10.6919 249.028 10.5347 249.028 10.5347C248.878 11.2002 248.803 11.8803 248.802 12.5625C248.881 13.3029 250.034 14.0367 250.483 12.9556" fill="white"/>
<path d="M81.8997 20.213C80.3502 21.1041 79.2789 21.8183 79.2789 19.0304C79.2789 16.2425 80.4321 13.0321 77.7785 12.6684C76.3862 12.4784 74.7581 12.901 73.1922 13.6348C71.7448 14.3428 70.4012 15.2455 69.1987 16.3179C66.876 18.4112 61.3134 20.5963 57.474 19.4039C57.4102 19.3822 57.3515 19.3476 57.3018 19.3022C57.252 19.2568 57.2122 19.2016 57.1848 19.1401C57.1574 19.0785 57.1431 19.012 57.1426 18.9446C57.1422 18.8772 57.1558 18.8105 57.1824 18.7487C58.3945 15.6791 59.4756 13.9461 59.4756 13.0615C59.4756 12.177 57.7393 12.0165 56.56 12.4391C55.4597 12.988 54.3881 13.5926 53.3495 14.2507C51.7901 15.2008 49.7787 16.7405 47.5477 18.254C43.4232 21.0484 40.8942 21.7724 39.8557 20.6684C39.5871 20.3834 39.3839 20.0623 39.6919 19.8166C43.5019 16.7798 45.3659 14.4931 43.5903 13.1205C42.044 11.9313 37.9851 12.0951 35.0957 13.019C34.8532 13.0976 34.6239 13.1827 34.4044 13.2712C34.3336 13.3011 34.2566 13.3133 34.18 13.3066C34.1035 13.3 34.0297 13.2747 33.9651 13.2331C33.9005 13.1914 33.8471 13.1346 33.8095 13.0676C33.7719 13.0006 33.7512 12.9254 33.7492 12.8486C33.6411 11.6692 31.3479 12.5636 30.3782 13.1467C29.271 13.8379 20.8615 17.8117 17.3627 18.883C13.864 19.9542 6.87957 22.2015 4.91397 20.6389C2.94838 19.0763 8.68136 13.9493 10.5487 12.4489C12.416 10.9485 18.7387 6.65698 23.7771 5.03209C28.8156 3.4072 31.1219 3.08615 31.7967 3.94773C32.4716 4.80932 30.8467 7.10906 28.3537 9.13363C25.8607 11.1582 23.2923 12.6324 20.8779 12.9436C18.1031 13.3007 21.5331 10.8797 24.7435 9.27449C26.3127 8.49481 25.7001 6.30317 22.6207 8.25566C22.6207 8.25566 16.7829 11.0796 16.8877 13.9493C16.9827 16.5701 24.4225 14.6897 28.2816 11.8232C30.0244 10.6349 31.5409 9.14501 32.7599 7.42356C35.6133 3.27616 33.5035 2.39164 32.0326 1.96576C29.4118 1.21883 22.3062 1.83145 12.9598 7.88875C9.32541 10.2642 6.04907 13.1467 3.23011 16.4489C2.5094 17.3203 2.14249 18.7781 2.07697 19.4956V20.0459C2.15887 20.9174 2.63388 21.625 3.44633 22.3064C7.57735 25.8084 20.2194 19.7708 25.5199 17.6152C25.5969 17.5868 25.6798 17.5783 25.7609 17.5905C25.842 17.6026 25.9187 17.635 25.984 17.6846C26.0493 17.7342 26.101 17.7995 26.1345 17.8744C26.1679 17.9493 26.1819 18.0314 26.1751 18.1131C25.9819 21.3334 28.0654 21.8215 29.8279 22.0869C31.6168 22.2412 33.4163 21.9555 35.0695 21.2548C35.523 21.1007 35.9903 20.991 36.465 20.9272C36.5678 20.9005 36.6765 20.9085 36.7743 20.9499C36.8721 20.9914 36.9534 21.064 37.0056 21.1565C39.954 26.6766 46.8139 20.9141 48.6517 19.7413C49.913 18.9354 51.7999 17.4841 53.3233 16.5898L53.9785 16.1934C54.0674 16.128 54.1756 16.0944 54.2859 16.0981C54.3962 16.1018 54.502 16.1424 54.5864 16.2135C54.6707 16.2846 54.7287 16.3821 54.7509 16.4901C54.7732 16.5982 54.7584 16.7106 54.709 16.8093L54.4764 17.3858C54.4382 17.483 54.3699 17.5653 54.2814 17.6207C54.193 17.6761 54.0891 17.7017 53.985 17.6938C53.7669 17.6794 53.548 17.6794 53.3298 17.6938C52.1701 17.7528 50.4601 18.1492 50.3814 20.2196C50.2799 23.0893 51.5117 23.928 53.3298 23.3219C53.4943 23.2655 53.6533 23.1942 53.8048 23.109C55.1939 22.4997 55.7344 21.7495 55.9408 21.3138C55.9896 21.2156 56.0703 21.1368 56.1697 21.0904C56.2691 21.044 56.3812 21.0327 56.4879 21.0582C59.7059 21.7297 63.0392 21.6049 66.1979 20.6946C66.2663 20.6729 66.3387 20.6665 66.4098 20.6759C66.4809 20.6854 66.5491 20.7104 66.6095 20.7492C66.6699 20.788 66.7209 20.8396 66.7591 20.9004C66.7972 20.9611 66.8215 21.0296 66.8302 21.1008C67.1578 23.6102 70.3126 23.4563 73.1889 22.2147C74.1446 21.8119 75.0451 21.289 75.8686 20.6586C75.9287 20.6134 75.9983 20.5826 76.0721 20.5685C76.1459 20.5544 76.222 20.5575 76.2944 20.5774C76.3669 20.5973 76.4338 20.6336 76.4901 20.6835C76.5463 20.7333 76.5904 20.7954 76.6188 20.8649C76.7811 21.2356 77.0218 21.5667 77.3244 21.8354C77.6269 22.104 77.9842 22.3038 78.3715 22.421C80.6843 23.2335 83.4755 21.8183 84.3404 20.842C84.5274 20.6662 84.6565 20.4377 84.7105 20.1868V20.0001C84.5795 19.4006 83.0725 19.5316 81.8965 20.213M35.0826 19.5218C32.642 20.3342 29.9786 20.7536 29.0056 19.702C27.9016 18.5161 30.1325 16.2556 31.0269 15.4432C31.1166 15.3619 31.2334 15.3169 31.3545 15.3169C31.4756 15.3169 31.5923 15.3619 31.6821 15.4432C32.7992 16.426 33.687 15.8985 35.0858 15.2433C35.456 15.0861 35.8524 14.9157 36.275 14.7749C38.5682 13.9624 41.1661 13.5922 41.4249 14.4473C41.6837 15.3023 40.6911 17.0943 37.9556 18.3785C37.0254 18.819 36.0666 19.1965 35.0858 19.5087M53.759 21.2319C53.5092 21.4229 53.2389 21.5855 52.9531 21.7167C52.8805 21.7541 52.7998 21.7726 52.7182 21.7707C52.6366 21.7688 52.5568 21.7464 52.4861 21.7057C52.4153 21.6649 52.356 21.6071 52.3134 21.5375C52.2708 21.4679 52.2463 21.3887 52.2422 21.3072C52.2127 20.7601 52.2422 20.0492 52.465 19.7708C53.1038 19.0304 53.6738 19.7708 53.8998 19.9444C54.04 20.0622 54.1519 20.21 54.2274 20.3768C54.2274 20.3768 54.365 20.7339 53.7492 21.2319M74.9841 17.9329C74.4528 18.6826 73.8529 19.3812 73.1922 20.0197C72.6102 20.5704 71.9114 20.9825 71.1479 21.2253C69.5099 21.6414 69.4575 21.15 69.8375 20.3572C70.4093 19.0179 71.25 17.8103 72.3076 16.8093C72.3076 16.8093 72.6844 16.4653 73.202 16.046C73.9424 15.4399 75.0202 14.6471 75.7867 14.4669C76.2814 14.0181 76.9694 14.1393 76.6516 14.8371C76.2263 15.9323 75.6697 16.9719 74.9939 17.9329" fill="white"/>
<path d="M277.27 16.1796C278.217 14.9478 278.289 12.9462 275.744 13.1296C274.561 13.2115 272.645 14.0764 270.699 15.0231C268.379 16.2058 266.594 17.1623 264.989 17.8962C263.164 18.7283 259.384 20.9133 257.572 20.2581C259.013 18.8364 261.503 17.7848 262.04 17.2311C262.578 16.6775 262.25 15.7897 261.022 15.7897C259.793 15.7897 256.075 18.0829 254.358 18.8364C252.642 19.5898 249.208 20.0779 249.208 20.0779C249.605 18.7315 250.918 17.9715 251.502 17.3098C252.085 16.648 250.846 16.078 249.503 16.5497C249.028 16.7332 248.268 17.1296 247.397 17.5718C245.929 18.3351 244.144 19.3179 242.774 19.7831C240.586 20.5431 234.876 22.0763 234.781 20.838C234.686 19.5997 237.248 18.0763 239.151 17.2344C241.055 16.3925 241.539 15.2426 240.006 15.2426C238.473 15.2426 235.541 16.9494 233.831 17.503L231.905 18.1844C231.119 18.4662 230.195 18.7905 229.228 19.105L229.261 19.0493C227.404 19.6553 225.386 20.2221 223.748 20.3957C221.661 20.6414 220.767 20.5497 220.688 20.0059C220.665 19.6783 220.907 19.2033 221.343 18.5514C221.501 18.3302 221.675 18.1211 221.864 17.9256H221.844C223.263 16.5334 225.867 15.8847 228.501 14.7185C229.314 14.3286 230.552 13.7357 231.885 13.0445C235.338 11.3049 239.594 8.91349 240.566 7.67518C241.877 5.96513 241.307 4.91355 238.84 4.91355C237.261 4.91355 234.444 6.01755 231.885 7.23293C230.63 7.8259 229.405 8.48193 228.216 9.1985C225.533 10.8103 220.229 15.9535 220.229 15.9535C218.116 16.6546 216.128 17.3196 214.293 17.9191C214.276 17.9384 214.261 17.9593 214.247 17.9813C211.627 18.8167 209.363 19.4981 207.578 19.8978C206.293 20.1631 204.8 20.5333 203.345 20.7692C201.38 21.0542 199.584 21.0968 198.66 20.268C200.264 19.5546 201.828 18.7552 203.345 17.8732C205.161 16.8586 206.925 15.7532 208.629 14.5612C210.346 13.3262 210.044 12.0093 207.319 11.7243C206.189 11.5867 204.747 12.1108 203.352 12.8512C201.681 13.7317 200.11 14.7906 198.667 16.0092C197.609 16.9785 196.624 18.0241 195.719 19.1377C191.722 19.5014 188.672 19.3278 187.62 17.716C189.141 16.5596 191.424 15.4228 192.302 14.7676C193.18 14.1124 190.569 12.8512 189.068 14.7676C188.672 11.7243 185.069 12.0879 182.412 13.0346C181.308 13.4638 180.463 13.8798 179.755 14.1911C178.756 14.6399 178.029 14.879 177.183 14.5187C175.762 13.8373 173.183 17.621 170.52 18.4498C168.099 19.2426 162.533 20.9756 159.896 20.684C159.663 20.6794 159.433 20.6351 159.215 20.553C157.033 19.7929 156.352 18.8462 158.275 17.1394C158.865 16.6091 159.407 16.0281 159.896 15.4032C160.551 14.535 160.715 13.8798 159.896 13.7947H159.503C157.587 14.0076 156.093 16.743 153.8 17.6112C151.506 18.4793 146.098 21.2147 144.208 21.2147C142.317 21.2147 140.571 20.3695 142.779 18.2663C144.987 16.1632 146.671 15.0297 147.221 14.2664C147.772 13.5031 146.956 12.6677 144.961 13.6112C142.966 14.5547 138.943 15.8716 134.943 17.2868C130.943 18.702 127.638 19.9436 125.351 19.9436C123.065 19.9436 124.077 16.2582 125.214 15.413C126.35 14.5678 129.574 12.1763 131.392 11.1379C133.21 10.0994 133.282 10.2665 134.914 10.4827C136.545 10.6989 137.57 8.18951 133.204 8.48107C136.886 4.85131 138.406 1.53932 133.764 2.01433C129.757 2.39107 126.609 2.94798 119.572 6.12893C118.416 6.6236 117.155 7.23293 115.785 7.89139C111.238 10.0732 106.187 13.5981 103.533 16.7365C102.187 18.3122 101.319 19.5734 101.161 20.5988V21.195C101.299 21.8764 101.849 22.4039 102.947 22.8003C105.823 23.8518 111.025 22.0402 114.947 19.9633C117.001 18.8527 118.55 17.9977 119.572 17.4375C120.467 16.9101 120.916 16.6185 120.916 16.6185C120.916 16.6185 120.08 23.1508 125.797 22.4956C131.513 21.8404 139.906 17.7062 139.906 17.7062C139.906 17.7062 136.886 21.4932 140.561 22.6496C144.237 23.806 149.22 21.4932 154.55 19.1279C154.478 21.1557 157.233 22.1287 159.886 22.2073C160.906 22.242 161.925 22.1317 162.913 21.8797C165.862 21.0149 170.33 20.1697 170.33 20.1697C171.467 23.1967 178.019 22.0665 178.019 22.0665C176.305 22.7216 172.017 26.3252 172.017 26.3252C166.805 27.688 163.395 28.8968 159.896 30.7903C158.389 31.6071 156.926 32.5026 155.513 33.4733C150.098 37.0769 149.23 39.0719 148.755 40.2087C148.28 41.3454 148.669 42.967 151.618 42.5019C153.377 42.2169 156.827 40.4249 159.896 38.5707C161.654 37.5205 163.345 36.3607 164.957 35.0982C167.716 32.805 174.235 27.6814 176.787 25.4997C177.514 24.887 178.566 24.0517 179.755 23.1803C182.703 20.9723 186.307 18.4465 186.307 18.4465C188.374 20.1861 190.893 21.6864 196.036 20.7397C197.294 22.2401 200.459 22.4203 203.348 22.1811C204.845 22.07 206.33 21.8422 207.791 21.4997C210.618 20.8445 217.785 18.6791 217.858 18.6562C217.835 18.856 217.822 19.0493 217.818 19.2327C217.749 22.0402 219.948 22.5349 222.886 22.2663C225.966 21.9714 231.666 20.2385 231.902 20.1861C231.594 21.0509 231.594 21.7389 231.902 22.2663C232.511 23.213 234.165 23.4718 236.77 22.9215C240.77 22.0828 245.9 20.2647 245.9 20.2647C246.225 20.8496 246.758 21.2906 247.394 21.4997C249.212 22.2401 252.059 21.7651 254.627 20.8445C256.733 23.1377 262.512 20.9199 262.512 20.9199C264.356 22.6037 269.175 21.0837 270.702 20.53L271.167 20.3695C270.936 20.861 270.779 21.3844 270.702 21.9223V22.4727C270.83 23.6815 271.773 24.3367 272.799 24.5496C274.332 24.8445 276.297 24.2581 275.272 23.6029C274.247 22.9477 272.7 23.1279 273.46 21.4997C274.22 19.8716 276.294 17.4211 277.27 16.1796ZM231.898 8.9266C234.162 7.84881 236.485 7.08879 237.664 7.08879C237.009 7.90777 234.483 9.61455 231.898 11.1149C229.566 12.4777 227.171 13.6604 226.175 13.8241C226.368 12.2451 229.091 10.3222 231.898 8.9266ZM203.345 14.63C204.872 13.87 206.395 13.4212 206.428 13.6472C206.5 14.3876 204.921 15.3638 203.345 16.1206C202.348 16.6084 201.327 17.0458 200.285 17.431C200.429 16.4154 201.897 15.3704 203.345 14.63ZM121.263 13.7291C120.847 13.9683 120.264 14.2795 119.582 14.6497C115.477 16.8053 107.618 20.6971 106.197 20.6971C104.542 20.6971 105.066 19.1443 106.613 17.3065C108.159 15.4687 115.002 10.9348 118.848 8.94298C119.081 8.81194 119.314 8.70711 119.582 8.57279C125.479 5.70961 131.893 3.708 133.128 3.62938C134.439 3.52127 134.095 3.97335 132.866 5.18218C131.638 6.39101 124.237 12.0715 121.263 13.7291ZM159.893 35.642C159.192 36.1432 158.582 36.592 158.075 36.9851C155.978 38.6231 152.607 40.6935 151.791 40.4282C150.976 40.1628 151.985 39.0654 153.479 37.7714C154.753 36.6674 157.478 34.2006 159.893 32.7788C160.316 32.524 160.753 32.2943 161.203 32.0909C163.801 30.9345 168.191 28.9099 168.269 29.3292C165.239 31.8255 162.127 34.0139 159.893 35.642ZM179.752 19.4129C178.998 19.7457 178.2 19.9664 177.383 20.0681C174.762 20.2745 173.603 20.3957 173.701 19.6455C173.799 18.8953 177.18 17.3327 177.707 16.9101C178.15 16.5399 178.435 16.802 179.752 16.4056C179.976 16.3144 180.206 16.2357 180.44 16.1697C182.336 15.4359 185.065 13.644 185.806 13.9617C184.485 16.4154 182.019 18.4138 179.752 19.4129ZM271.324 18.6726C270.139 19.2196 268.569 19.8814 267.6 20.0255C267.48 20.0466 267.357 20.0195 267.257 19.9502C267.157 19.8809 267.088 19.7749 267.066 19.6553C266.994 19.2229 267.783 18.2172 270.342 16.838C271.369 16.2879 272.439 15.8223 273.542 15.4457C274.807 14.9216 275.223 14.9216 274.489 16.078C273.684 17.2095 272.592 18.1053 271.324 18.6726Z" fill="white"/>
</svg>
